<?xml version="1.0" encoding="utf-8"?>
<!-- Generator: Adobe Illustrator 18.0.0, SVG Export Plug-In . SVG Version: 6.00 Build 0)  -->
<!DOCTYPE svg PUBLIC "-//W3C//DTD SVG 1.1//EN" "http://www.w3.org/Graphics/SVG/1.1/DTD/svg11.dtd">
<svg version="1.1" id="Layer_1" xmlns="http://www.w3.org/2000/svg" xmlns:xlink="http://www.w3.org/1999/xlink" x="0px" y="0px"
	 viewBox="0 0 612 792" enable-background="new 0 0 612 792" xml:space="preserve">
<path fill="none" stroke="#ED1C24" stroke-miterlimit="10" d="M351.2,346.2h74.7c0,0-0.7-50.7-53.4-87c-5.5,9.6-9.6,16.4-9.6,16.4
	s17.1,7.5,22.6,21.9l-34.3,25.3V346.2z"/>
<polygon fill="none" stroke="#00AEEF" stroke-miterlimit="10" points="362.1,413.2 362.1,401.8 403.9,401.8 403.9,513.5 
	351.2,513.5 351.2,413.2 "/>
<path fill="none" stroke="#00AEEF" stroke-miterlimit="10" d="M128.4,331.4c9.7,0,13.6,0,13.6,0l1.8,5h12.5v-5h8.2v5h22.9v-2.5h10
	v5.7h15.1v-2.2h12.9v9h33.7c0,0,12.2,1.1,10.8,17.6c-1.4,16.5-4.7,20.1-4.7,20.1v5.4h2.9l1.9,8.2l-5.1,7.9h-8.2v16.8h-26.5v20.1
	h-40.9v-30.1h-10.4v-7.2h-15.4v5.4h-6.8v9.7h-9.3v-10.4h-6.5v-7.2h-8.6v-7.2h-7.2l-13.1-13.1v-38.5L128.4,331.4z"/>
<path fill="none" stroke="#00AEEF" stroke-miterlimit="10" d="M332.7,450.3"/>
</svg>
